# xmcd
#
# Track frame offsets:
#   150
#   13860
#   27518
#   42821
#   57906
#   72267
#   85798
#   100370
#   114103
#   126135
#   139388
#   152029
#   164807
#   176787
#   190315
#   202985
#   215120
#   230261
#   245212
#   257736
#   272273
#   286493
#   300639
#   315957
#   331283
#
# Disc length: 4622 seconds
#
# Revision: 2
# Processed by: cddbd v1.5.1PL0 Copyright (c) Steve Scherf et al.
# Submitted via: Media_Universe 3.0
#
DISCID=6f120c19
DTITLE=Jimmie Rodgers - Les Triomphes De La Country Music Vol.1
DYEAR=2002
DGENRE=Country
TTITLE0=The Soldier's Sweetheart
TTITLE1=Sleep, Baby, Sleep
TTITLE2=Blue Yodel No. 1 (T. For Texas)
TTITLE3=Ben Dewberry's Final Run
TTITLE4=Brakeman Blues
TTITLE5=Treasures Untold
TTITLE6=In The Jailhouse Now
TTITLE7=Blueyodel No. 4 (California Blues)
TTITLE8=Waitin' For A Train
TTITLE9=High Powered Mama
TTITLE10=Jimmie Texas Blues
TTITLE11=Those Gambler's Blues
TTITLE12=Blue Yodel No. 9
TTITLE13=T.B. Blues
TTITLE14=Jimmy The Kid
TTITLE15=Let Me Be Your Sidetrack
TTITLE16=Gambling Polka Dot Blues
TTITLE17=Looking For A New Mama
TTITLE18=My Good Gal's Gone Blues
TTITLE19=Ninety Nine Years Blues
TTITLE20=Whippin' That Old T.B.
TTITLE21=No Hard Times
TTITLE22=Long Tall Mama Blues
TTITLE23=Gambling Bar Room
TTITLE24=Mississipi Delta Blues
EXTD=YEAR: 2002
EXTT0=
EXTT1=
EXTT2=
EXTT3=
EXTT4=
EXTT5=
EXTT6=
EXTT7=
EXTT8=
EXTT9=
EXTT10=
EXTT11=
EXTT12=
EXTT13=
EXTT14=
EXTT15=
EXTT16=
EXTT17=
EXTT18=
EXTT19=
EXTT20=
EXTT21=
EXTT22=
EXTT23=
EXTT24=
PLAYORDER=
